<svg xmlns="http://www.w3.org/2000/svg" version="1.1" xmlns:xlink="http://www.w3.org/1999/xlink" xmlns:svgjs="http://svgjs.dev/svgjs" width="1000" height="1000" viewBox="0 0 1000 1000"><rect width="1000" height="1000" fill="#0080ff"></rect><g transform="matrix(0.7,0,0,0.7,149.57575757575756,405.46805471895067)"><svg viewBox="0 0 396 107" data-background-color="#0080ff" preserveAspectRatio="xMidYMid meet" height="270" width="1000" xmlns="http://www.w3.org/2000/svg" xmlns:xlink="http://www.w3.org/1999/xlink"><defs></defs><g id="tight-bounds" transform="matrix(1,0,0,1,0.2400000000000091,0.018085423662853373)"><svg viewBox="0 0 395.52 106.96382915267426" height="106.96382915267426" width="395.52"><g><svg viewBox="0 0 595.7707429626355 161.1193364796146" height="106.96382915267426" width="395.52"><g transform="matrix(1,0,0,1,200.25074296263548,22.267578341249198)"><svg viewBox="0 0 395.52 116.58417979711619" height="116.58417979711619" width="395.52"><g><svg viewBox="0 0 395.52 116.58417979711619" height="116.58417979711619" width="395.52"><g><svg viewBox="0 0 395.52 72.69094644167278" height="72.69094644167278" width="395.52"><g transform="matrix(1,0,0,1,0,0)"><svg width="395.52" viewBox="2.8499999046325684 -38.75 272.57000732421875 50.099998474121094" height="72.69094644167278" data-palette-color="#ffffff"><path d="M13.6-3Q13.2-1.25 12.38-0.3 11.55 0.65 9.7 0.65L9.7 0.65Q8.15 0.65 7.43 0.13 6.7-0.4 6.7-1.65L6.7-1.65Q6.7-2.2 6.85-2.7L6.85-2.7 12.95-26.9Q12.9-26.9 9.7-26.55L9.7-26.55Q5.85-26.25 4.9-26.05L4.9-26.05Q3.9-26.4 3.38-27.13 2.85-27.85 2.85-28.85L2.85-28.85Q2.85-29.65 3.43-30.38 4-31.1 4.8-31.45L4.8-31.45Q7.3-31.95 11.8-32.3 16.3-32.65 23.35-33.05L23.35-33.05Q26.95-33.2 28.2-33.35L28.2-33.35Q29-33 29.58-32.27 30.15-31.55 30.15-30.75L30.15-30.75Q30.15-29.85 29.25-29 28.35-28.15 27.2-27.8L27.2-27.8 18.45-27.35Q19-27.15 19-26L19-26Q19-25.4 18.9-25.1L18.9-25.1Q18.05-21.3 16.57-15.25 15.1-9.2 14.6-7.05L14.6-7.05Q14.3-5.8 14.05-4.8 13.8-3.8 13.6-3L13.6-3ZM34.6-1.9Q34.55-1.6 34.37-0.73 34.2 0.15 33.52 0.5 32.85 0.85 31.4 0.85L31.4 0.85Q29.75 0.85 29 0.5 28.25 0.15 28.25-1L28.25-1 30.65-10.55Q32.65-18.8 33.3-21.05L33.3-21.05 32.05-22.55Q31.9-22.7 31.9-22.9L31.9-22.9Q31.9-23.4 33-23.73 34.1-24.05 36.05-24.05L36.05-24.05Q37.8-24.05 38.4-23.08 39-22.1 39.15-20.55L39.15-20.55 38.8-19.25Q40.4-21.2 42.52-22.48 44.65-23.75 46.3-23.75L46.3-23.75Q48.45-23.75 49.65-23 50.85-22.25 50.85-21.05L50.85-21.05Q50.85-20 50.12-18.88 49.4-17.75 48.3-16.98 47.2-16.2 46.15-16.1L46.15-16.1Q45.15-16.1 44.8-16.35 44.45-16.6 44.45-17.1L44.45-17.1 44.75-18.75Q40.75-17.65 37.5-13.45L37.5-13.45 34.6-1.9ZM68.4-2.6Q68.5-1.3 68.75-0.25L68.75-0.25Q68.65 0.05 67.87 0.35 67.09 0.65 66.55 0.65L66.55 0.65Q64.75 0.65 63.97 0.13 63.2-0.4 63.2-1.45L63.2-1.45Q63.2-2.45 63.4-3.45L63.4-3.45Q62.3-1.95 60.17-0.98 58.05 0 56.75 0L56.75 0Q53.4 0 51.17-1.95 48.95-3.9 48.95-8.2L48.95-8.2Q48.95-12.25 50.87-15.83 52.8-19.4 56.2-21.58 59.59-23.75 63.75-23.75L63.75-23.75Q64.55-23.75 65.84-23.33 67.15-22.9 68.47-21.88 69.8-20.85 70.7-19.25L70.7-19.25Q71.09-19.25 71.65-18.85 72.2-18.45 72.2-18.05L72.2-18.05Q72.2-17.6 72.05-17.15L72.05-17.15 68.4-2.6ZM66.15-16.6Q65.84-17.7 64.97-18.45 64.09-19.2 63.4-19.2L63.4-19.2Q61.09-19.2 59.07-17.57 57.05-15.95 55.8-13.55 54.55-11.15 54.55-9L54.55-9Q54.55-6.9 55.05-5.55 55.55-4.2 57-4.2L57-4.2Q58.25-4.2 59.87-4.95 61.5-5.7 62.77-6.98 64.05-8.25 64.45-9.65L64.45-9.65 66.15-16.6ZM80.19 1.05Q78.49 0.7 77.79 0.35 77.09 0 76.89-0.6 76.69-1.2 76.64-2.65L76.64-2.65Q76.49-6.05 76.19-9.4L76.19-9.4Q76.14-10.2 75.89-14.15 75.64-18.1 75.64-21.65L75.64-21.65Q75.64-22.55 76.57-23.15 77.49-23.75 78.89-23.75L78.89-23.75Q81.59-23.75 81.59-21.3L81.59-21.3 81.64-7.6 81.64-4.1Q84.99-10.4 89.22-17.1 93.44-23.8 94.69-23.8L94.69-23.8Q96.29-23.8 97.39-23.18 98.49-22.55 98.54-21.75L98.54-21.75Q98.09-20.9 96.59-18.65L96.59-18.65Q95.99-17.8 94.44-15.35L94.44-15.35 92.69-12.6Q88.49-6.05 86.84-3.63 85.19-1.2 84.04-0.15L84.04-0.15Q83.49 0.35 82.44 0.7 81.39 1.05 80.19 1.05L80.19 1.05ZM106.74 1.05Q101.84 1.05 99.59-0.9 97.34-2.85 97.34-6.1L97.34-6.1Q97.34-10.85 99.72-14.9 102.09-18.95 106.07-21.33 110.04-23.7 114.64-23.7L114.64-23.7Q117.44-23.7 119.34-22.13 121.24-20.55 121.24-17.5L121.24-17.5Q121.24-15.75 120.12-14.63 118.99-13.5 116.89-12.63 114.79-11.75 110.09-10.15L110.09-10.15Q105.84-8.75 103.19-7.8L103.19-7.8Q102.99-7.05 102.99-6.25L102.99-6.25Q102.99-4.85 104.17-4.1 105.34-3.35 107.49-3.35L107.49-3.35Q108.84-3.35 110.59-3.9 112.34-4.45 112.79-5.3L112.79-5.3Q114.49-8.4 115.89-8.4L115.89-8.4Q117.94-8.4 118.67-7.63 119.39-6.85 119.44-5.9L119.44-5.9Q118.84-4.3 117.09-2.68 115.34-1.05 112.64 0 109.94 1.05 106.74 1.05L106.74 1.05ZM104.59-12.4Q109.54-14 112.74-15.38 115.94-16.75 115.94-18.1L115.94-18.1Q115.94-18.7 115.29-19.07 114.64-19.45 113.89-19.45L113.89-19.45Q112.39-19.45 110.47-18.3 108.54-17.15 106.89-15.5 105.24-13.85 104.59-12.4L104.59-12.4ZM137.49-35.85L135.39-27.2Q129.74-3.45 128.74-0.05L128.74-0.05Q128.64 0.25 127.71 0.73 126.79 1.2 126.44 1.2L126.44 1.2Q125.04 1.2 123.74 0.5 122.44-0.2 122.34-1.75L122.34-1.75Q122.39-1.85 122.84-2.8 123.29-3.75 123.74-5.5L123.74-5.5Q124.89-9.8 126.36-15.7 127.84-21.6 128.34-23.6L128.34-23.6 130.69-33.15Q130.64-33.55 130.64-37.3L130.64-37.3Q130.79-37.95 131.76-38.35 132.74-38.75 133.54-38.75L133.54-38.75Q134.79-38.75 136.11-37.9 137.44-37.05 137.49-35.85L137.49-35.85ZM171.43-11.1Q164.88-10 160.98-9.1L160.98-9.1Q159.78-7.2 159.43-6.55L159.43-6.55Q158.38-4.7 157.56-3.48 156.73-2.25 155.78-1.3L155.78-1.3Q154.73-0.25 154.06 0.2 153.38 0.65 152.48 0.65L152.48 0.65Q150.98 0.65 149.86-0.03 148.73-0.7 148.73-1.4L148.73-1.4Q148.83-1.5 149.83-3.63 150.83-5.75 153.53-8.95L153.53-8.95Q153.53-9.35 153.28-9.95 153.03-10.55 153.03-10.65L153.03-10.65Q153.03-12.1 157.58-14.15L157.58-14.15Q160.13-17.95 162.96-21.65 165.78-25.35 169.88-30.4L169.88-30.4Q170.88-31.65 172.43-32.45 173.98-33.25 175.53-33.25L175.53-33.25Q177.13-33.25 177.93-32.95 178.73-32.65 178.96-32.15 179.18-31.65 179.18-30.75L179.18-30.75Q178.98-29.25 178.93-28.5L178.93-28.5Q178.18-22.45 177.81-18.13 177.43-13.8 177.43-9.5L177.43-9.5Q177.43-5.55 177.78-2.25L177.78-2.25Q177.63-1.05 176.73-0.08 175.83 0.9 174.63 0.9L174.63 0.9Q172.33 0.9 171.61-0.25 170.88-1.4 170.88-4.15L170.88-4.15Q170.88-6.15 171.43-11.1L171.43-11.1ZM164.93-14.85Q165.83-15.05 167.68-15.3L167.68-15.3 171.68-15.9Q172.13-22.85 172.73-25.9L172.73-25.9Q170.78-23.6 164.93-14.85L164.93-14.85ZM186.53-22.85Q186.38-23 186.38-23.2L186.38-23.2Q186.38-23.7 187.48-24.03 188.58-24.35 190.53-24.35L190.53-24.35Q192.33-24.35 193.18-23.43 194.03-22.5 194.18-21.2L194.18-21.2 193.28-17.95Q194.33-19.4 196.23-20.73 198.13-22.05 200.08-22.85 202.03-23.65 203.28-23.65L203.28-23.65Q205.93-23.65 207.13-22.68 208.33-21.7 208.33-19.6L208.33-19.6Q205.38-11.9 204.43-3L204.43-3 205.13-0.55Q204.53 0.6 203.46 1.28 202.38 1.95 200.33 1.95L200.33 1.95Q199.13 1.95 198.58 1.15 198.03 0.35 198.03-0.85L198.03-0.85Q198.03-4.2 199.01-8.22 199.98-12.25 201.28-16.45L201.28-16.45Q201.78-18.05 201.78-18.1L201.78-18.1Q201.78-18.8 200.98-18.8L200.98-18.8Q199.88-18.8 197.66-17.25 195.43-15.7 193.08-12.03 190.73-8.35 189.28-2.4L189.28-2.4Q189.18-2.1 189.03-1.3 188.88-0.5 188.23-0.18 187.58 0.15 186.13 0.15L186.13 0.15Q184.48 0.15 183.71-0.2 182.93-0.55 182.93-1.7L182.93-1.7Q183.08-2.4 183.38-3.4L183.38-3.4Q186.28-15.05 187.83-21.35L187.83-21.35 186.53-22.85ZM215.78 11.35Q213.48 11.35 211.45 10.35 209.43 9.35 208.05 7.78 206.68 6.2 206.08 4.6L206.08 4.6Q206.13 3.7 206.95 2.83 207.78 1.95 209.83 1.95L209.83 1.95Q210.48 1.95 210.95 2.45 211.43 2.95 212.03 4.05L212.03 4.05Q212.83 5.55 213.7 6.38 214.58 7.2 216.13 7.2L216.13 7.2Q217.88 7.2 219.5 5.83 221.13 4.45 222.3 2.1 223.48-0.25 223.93-3.1L223.93-3.1Q222.83-1.6 221.4-0.8 219.98 0 218.73 0L218.73 0Q214.73 0 212.4-1.78 210.08-3.55 210.08-8.1L210.08-8.1Q210.08-12.2 212.35-15.75 214.63-19.3 218.43-21.4 222.23-23.5 226.58-23.5L226.58-23.5Q229.43-23.5 230.8-22.35 232.18-21.2 232.48-19.45L232.48-19.45Q233.33-19.05 233.38-18.65L233.38-18.65Q233.38-18.5 233.18-17.6L233.18-17.6Q232.23-13.5 229.18-1.4L229.18-1.4 228.63 0.8Q227.38 5.65 223.85 8.5 220.33 11.35 215.78 11.35L215.78 11.35ZM227.08-18.35Q226.68-19.05 226.3-19.25 225.93-19.45 225.18-19.45L225.18-19.45Q222.83-19.45 220.63-17.93 218.43-16.4 217.08-13.98 215.73-11.55 215.73-9L215.73-9Q215.73-7.15 216.4-5.8 217.08-4.45 218.58-4.25L218.58-4.25Q220.58-4.6 222.35-6.05 224.13-7.5 224.78-9.8L224.78-9.8 227.08-18.35ZM244.68 1.05Q239.78 1.05 237.53-0.9 235.28-2.85 235.28-6.1L235.28-6.1Q235.28-10.85 237.65-14.9 240.03-18.95 244-21.33 247.98-23.7 252.58-23.7L252.58-23.7Q255.38-23.7 257.28-22.13 259.18-20.55 259.18-17.5L259.18-17.5Q259.18-15.75 258.05-14.63 256.93-13.5 254.83-12.63 252.73-11.75 248.03-10.15L248.03-10.15Q243.78-8.75 241.13-7.8L241.13-7.8Q240.93-7.05 240.93-6.25L240.93-6.25Q240.93-4.85 242.1-4.1 243.28-3.35 245.43-3.35L245.43-3.35Q246.78-3.35 248.53-3.9 250.28-4.45 250.73-5.3L250.73-5.3Q252.43-8.4 253.83-8.4L253.83-8.4Q255.88-8.4 256.6-7.63 257.33-6.85 257.38-5.9L257.38-5.9Q256.78-4.3 255.03-2.68 253.28-1.05 250.58 0 247.88 1.05 244.68 1.05L244.68 1.05ZM242.53-12.4Q247.48-14 250.68-15.38 253.88-16.75 253.88-18.1L253.88-18.1Q253.88-18.7 253.23-19.07 252.58-19.45 251.83-19.45L251.83-19.45Q250.33-19.45 248.4-18.3 246.48-17.15 244.83-15.5 243.18-13.85 242.53-12.4L242.53-12.4ZM275.42-35.85L273.32-27.2Q267.67-3.45 266.67-0.05L266.67-0.05Q266.57 0.25 265.65 0.73 264.72 1.2 264.37 1.2L264.37 1.2Q262.97 1.2 261.67 0.5 260.37-0.2 260.27-1.75L260.27-1.75Q260.32-1.85 260.77-2.8 261.22-3.75 261.67-5.5L261.67-5.5Q262.82-9.8 264.3-15.7 265.77-21.6 266.27-23.6L266.27-23.6 268.62-33.15Q268.57-33.55 268.57-37.3L268.57-37.3Q268.72-37.95 269.7-38.35 270.67-38.75 271.47-38.75L271.47-38.75Q272.72-38.75 274.05-37.9 275.37-37.05 275.42-35.85L275.42-35.85Z" opacity="1" transform="matrix(1,0,0,1,0,0)" fill="#ffffff" class="undefined-text-0" data-fill-palette-color="primary" id="text-0"></path></svg></g></svg></g><g transform="matrix(1,0,0,1,0,89.85153431383712)"><svg viewBox="0 0 232.20979199999996 26.732645483279075" height="26.732645483279075" width="232.20979199999996"><g transform="matrix(1,0,0,1,0,0)"><svg width="232.20979199999996" viewBox="1.2699999809265137 -37.5 329.94000244140625 37.9900016784668" height="26.732645483279075" data-palette-color="#ffffff"><path d="M28.61-35.55L28.61-32.98 16.43-32.98 16.43 0 13.43 0 13.43-32.98 1.27-32.98 1.27-35.55 28.61-35.55ZM44.11-26.59L44.04-23.93Q43.11-24.1 42.06-24.1L42.06-24.1Q39.33-24.1 37.44-22.57 35.54-21.04 34.74-18.14L34.74-18.14 34.74 0 31.83 0 31.83-26.42 34.69-26.42 34.74-22.22Q37.06-26.9 42.19-26.9L42.19-26.9Q43.41-26.9 44.11-26.59L44.11-26.59ZM67.48 0L64.35 0Q63.91-1.25 63.79-3.69L63.79-3.69Q62.25-1.68 59.87-0.6 57.49 0.49 54.83 0.49L54.83 0.49Q51.02 0.49 48.66-1.64 46.31-3.76 46.31-7.01L46.31-7.01Q46.31-10.86 49.52-13.11 52.73-15.36 58.47-15.36L58.47-15.36 63.76-15.36 63.76-18.36Q63.76-21.19 62.02-22.81 60.27-24.44 56.93-24.44L56.93-24.44Q53.88-24.44 51.87-22.88 49.87-21.31 49.87-19.12L49.87-19.12 46.94-19.14Q46.94-22.29 49.87-24.6 52.8-26.9 57.08-26.9L57.08-26.9Q61.49-26.9 64.05-24.69 66.6-22.49 66.67-18.53L66.67-18.53 66.67-6.03Q66.67-2.2 67.48-0.29L67.48-0.29 67.48 0ZM55.17-2.1L55.17-2.1Q58.1-2.1 60.41-3.52 62.71-4.93 63.76-7.3L63.76-7.3 63.76-13.11 58.54-13.11Q54.17-13.06 51.7-11.51 49.24-9.96 49.24-7.25L49.24-7.25Q49.24-5.03 50.89-3.56 52.53-2.1 55.17-2.1ZM74.21-26.42L82.32-4.03 90.35-26.42 93.35-26.42 83.49 0 81.12 0 71.21-26.42 74.21-26.42ZM108.05 0.49L108.05 0.49Q104.68 0.49 101.96-1.17 99.23-2.83 97.72-5.8 96.21-8.76 96.21-12.45L96.21-12.45 96.21-13.5Q96.21-17.31 97.68-20.36 99.16-23.41 101.8-25.16 104.43-26.9 107.51-26.9L107.51-26.9Q112.32-26.9 115.14-23.62 117.96-20.34 117.96-14.65L117.96-14.65 117.96-13.01 99.11-13.01 99.11-12.45Q99.11-7.96 101.69-4.97 104.26-1.98 108.17-1.98L108.17-1.98Q110.51-1.98 112.31-2.83 114.1-3.69 115.57-5.57L115.57-5.57 117.4-4.17Q114.17 0.49 108.05 0.49ZM107.51-24.41L107.51-24.41Q104.21-24.41 101.96-22 99.7-19.58 99.21-15.5L99.21-15.5 115.05-15.5 115.05-15.82Q114.93-19.63 112.88-22.02 110.83-24.41 107.51-24.41ZM126.92-37.5L126.92 0 123.99 0 123.99-37.5 126.92-37.5ZM170.56 0L166.88-9.96 150.74-9.96 147.08 0 143.93 0 157.38-35.55 160.24-35.55 173.69 0 170.56 0ZM158.8-31.88L151.67-12.52 165.92-12.52 158.8-31.88ZM178.23-26.42L181.01-26.42 181.11-21.9Q182.6-24.34 184.82-25.62 187.04-26.9 189.73-26.9L189.73-26.9Q193.97-26.9 196.05-24.51 198.12-22.12 198.15-17.33L198.15-17.33 198.15 0 195.24 0 195.24-17.36Q195.22-20.9 193.74-22.63 192.27-24.37 189.02-24.37L189.02-24.37Q186.31-24.37 184.22-22.67 182.13-20.97 181.13-18.09L181.13-18.09 181.13 0 178.23 0 178.23-26.42ZM204.52-13.11L204.52-13.45Q204.52-19.6 207.27-23.25 210.01-26.9 214.72-26.9L214.72-26.9Q220.07-26.9 222.88-22.68L222.88-22.68 222.88-37.5 225.78-37.5 225.78 0 223.05 0 222.93-3.52Q220.12 0.49 214.67 0.49L214.67 0.49Q210.11 0.49 207.31-3.19 204.52-6.86 204.52-13.11L204.52-13.11ZM207.47-12.94L207.47-12.94Q207.47-7.89 209.5-4.97 211.53-2.05 215.21-2.05L215.21-2.05Q220.61-2.05 222.88-6.81L222.88-6.81 222.88-19.21Q220.61-24.37 215.26-24.37L215.26-24.37Q211.57-24.37 209.52-21.47 207.47-18.58 207.47-12.94ZM268.45-11.08L271.48-11.08Q270.87-5.47 267.47-2.49 264.06 0.49 258.4 0.49L258.4 0.49Q254.44 0.49 251.4-1.49 248.36-3.47 246.7-7.09 245.04-10.72 245.02-15.38L245.02-15.38 245.02-20Q245.02-24.73 246.68-28.39 248.34-32.06 251.45-34.05 254.56-36.04 258.62-36.04L258.62-36.04Q264.33-36.04 267.64-32.95 270.94-29.86 271.48-24.41L271.48-24.41 268.45-24.41Q267.33-33.47 258.62-33.47L258.62-33.47Q253.78-33.47 250.91-29.86 248.04-26.25 248.04-19.87L248.04-19.87 248.04-15.53Q248.04-9.38 250.84-5.71 253.63-2.05 258.4-2.05L258.4-2.05Q263.11-2.05 265.5-4.31 267.89-6.57 268.45-11.08L268.45-11.08ZM281-37.5L281-21.95Q282.44-24.32 284.69-25.61 286.93-26.9 289.59-26.9L289.59-26.9Q293.84-26.9 295.92-24.51 297.99-22.12 298.02-17.33L298.02-17.33 298.02 0 295.11 0 295.11-17.36Q295.09-20.9 293.61-22.63 292.13-24.37 288.89-24.37L288.89-24.37Q286.18-24.37 284.09-22.67 282-20.97 281-18.09L281-18.09 281 0 278.1 0 278.1-37.5 281-37.5ZM308.81-26.42L308.81 0 305.88 0 305.88-26.42 308.81-26.42ZM305.36-34.06L305.36-34.06Q305.36-34.89 305.9-35.46 306.44-36.04 307.36-36.04 308.29-36.04 308.84-35.46 309.39-34.89 309.39-34.06 309.39-33.23 308.84-32.67 308.29-32.1 307.36-32.1 306.44-32.1 305.9-32.67 305.36-33.23 305.36-34.06ZM320.01-37.5L320.01 0 317.08 0 317.08-37.5 320.01-37.5ZM331.21-37.5L331.21 0 328.28 0 328.28-37.5 331.21-37.5Z" opacity="1" transform="matrix(1,0,0,1,0,0)" fill="#ffffff" class="undefined-text-1" data-fill-palette-color="secondary" id="text-1"></path></svg></g></svg></g></svg></g></svg></g><g><svg viewBox="0 0 183.09015509047114 161.1193364796146" height="161.1193364796146" width="183.09015509047114"><g><svg xmlns="http://www.w3.org/2000/svg" xmlns:xlink="http://www.w3.org/1999/xlink" version="1.1" x="0" y="0" viewBox="0 6 100 88" enable-background="new 0 0 100 100" xml:space="preserve" height="161.1193364796146" width="183.09015509047114" class="icon-icon-0" data-fill-palette-color="accent" id="icon-0"><g fill="#ffffff" data-fill-palette-color="accent"><path d="M87.443 45.365c-0.537-1.955-5.529-2.123-7.537-1.454C72.602 46.34 65.297 48.77 57.991 51.2L32.634 41.074l-2.676 2.854 10.852 13.03c-6.995 2.418-19.806 6.884-22.131 7.655-2.001 0.666 12.936 2.785 16.36 2.217 0 0 26.313-8.582 37.945-12.453 2.988-0.994 5.979-1.988 8.972-2.984C83.956 50.727 88.025 47.484 87.443 45.365z" fill="#ffffff" data-fill-palette-color="accent"></path><polygon points="14.533,55.344 12.5,57.221 17.89,63.51 25.702,60.758  " fill="#ffffff" data-fill-palette-color="accent"></polygon></g><path d="M94 6H6c-3.313 0-6 2.687-6 6v76c0 3.313 2.687 6 6 6h88c3.314 0 6-2.688 6-6V12C100 8.686 97.314 6 94 6zM79 10c2.205 0 4 1.794 4 4s-1.795 4-4 4-4-1.794-4-4S76.795 10 79 10zM68 10c2.205 0 4 1.794 4 4s-1.795 4-4 4-4-1.794-4-4S65.795 10 68 10zM94 88H6V22h88V88zM90 18c-2.205 0-4-1.794-4-4s1.795-4 4-4 4 1.794 4 4S92.205 18 90 18z" fill="#ffffff" data-fill-palette-color="accent"></path></svg></g></svg></g></svg></g></svg><rect width="395.52" height="106.96382915267426" fill="none" stroke="none" visibility="hidden"></rect></g></svg></g></svg>